<mxfile host="app.diagrams.net" modified="2023-07-28T15:02:32.690Z" agent="Mozilla/5.0 (Windows NT 10.0; Win64; x64) AppleWebKit/537.36 (KHTML, like Gecko) Chrome/115.0.0.0 Safari/537.36" version="21.6.5" etag="PcWLnmeIRyMz55Vh4FmE" type="github">
  <diagram name="PÃ¡gina-1" id="DBajnThhRsRiPDxOt2vc">
    <mxGraphModel>
      <root>
        <mxCell id="0" />
        <mxCell id="1" parent="0" />
      </root>
    </mxGraphModel>
  </diagram>
</mxfile>
